
<svg width="1440" height="320" viewBox="0 0 1440 320" xmlns="http://www.w3.org/2000/svg">
  <path fill="#0EA5E9" fill-opacity="0.5" d="M0,224L48,213.3C96,203,192,181,288,181.3C384,181,480,203,576,213.3C672,224,768,224,864,208C960,192,1056,160,1152,149.3C1248,139,1344,149,1392,154.7L1440,160L1440,320L1392,320C1344,320,1248,320,1152,320C1056,320,960,320,864,320C768,320,672,320,576,320C480,320,384,320,288,320C192,320,96,320,48,320L0,320Z"></path>
  <path fill="#1EAEDB" fill-opacity="0.3" d="M0,256L48,256C96,256,192,256,288,245.3C384,235,480,213,576,213.3C672,213,768,235,864,234.7C960,235,1056,213,1152,197.3C1248,181,1344,171,1392,165.3L1440,160L1440,320L1392,320C1344,320,1248,320,1152,320C1056,320,960,320,864,320C768,320,672,320,576,320C480,320,384,320,288,320C192,320,96,320,48,320L0,320Z"></path>
  <path fill="#33C3F0" fill-opacity="0.2" d="M0,288L48,272C96,256,192,224,288,213.3C384,203,480,213,576,229.3C672,245,768,267,864,272C960,277,1056,267,1152,245.3C1248,224,1344,192,1392,176L1440,160L1440,320L1392,320C1344,320,1248,320,1152,320C1056,320,960,320,864,320C768,320,672,320,576,320C480,320,384,320,288,320C192,320,96,320,48,320L0,320Z"></path>
</svg>
